<svg id="Layer_1" data-name="Layer 1" xmlns="http://www.w3.org/2000/svg" xmlns:xlink="http://www.w3.org/1999/xlink" viewBox="0 0 509.99957 438.77415"><defs><style>.cls-1{fill:url(#linear-gradient);}.cls-2{fill:url(#linear-gradient-2);}</style><linearGradient id="linear-gradient" x1="427.1513" y1="353.2382" x2="937.15087" y2="353.2382" gradientUnits="userSpaceOnUse"><stop offset="0" stop-color="#f75e28"/><stop offset="1" stop-color="#fc7a2a"/></linearGradient><linearGradient id="linear-gradient-2" x1="508.79546" y1="494.22542" x2="856.28826" y2="494.22542" xlink:href="#linear-gradient"/></defs><g id="DvjsYQ.tif"><path class="cls-1" d="M427.1513,475.0184c1.3172-.21944,1.22245-1.46009,1.51857-2.29658a29.95168,29.95168,0,0,1,16.14274-18.00993c2.18248-1.00285,2.79717-2.27782,2.79463-4.542q-.07944-70.80063.0231-141.60124c.00475-2.59522-1.06027-3.87253-3.11453-5.02007-5.49819-3.07134-10.91749-6.28378-16.3851-9.45.34438-1.93235,2.08811-2.02369,3.304-2.63648Q555.26647,229.05134,679.113,166.67c2.15128-1.0844,3.871-1.63463,6.3644-.37565q124.8977,63.06518,249.88811,125.94683c.563.2836,1.09017.63838,1.78533,1.04935-.75462,1.63214-2.24254,2.04845-3.43885,2.74373Q810.07509,367.89315,686.46534,439.79859c-3.05322,1.77874-5.10419,1.50747-7.99593-.177Q575.74477,379.78324,472.91064,320.13282c-1.397-.81144-2.79636-1.61879-4.86462-2.81584v4.83055q0,63.32176-.05853,126.64338c-.00638,3.09678.59493,4.85178,3.71326,6.41821,14.16767,7.117,20.17666,22.7757,14.498,37.547-6.72387,17.49009-17.53769,32.60047-28.40467,48.15008-12.05553-17.26593-23.87817-34.144-30.64278-53.92007Z" transform="translate(-427.1513 -165.57021)"/><path class="cls-2" d="M682.64916,604.34436c-16.44646-24.64-40.75031-36.71309-67.06419-45.53732-32.74144-10.97969-66.61347-15.03127-101.01437-15.08842-4.33285-.00722-5.80043-.92932-5.77481-5.66055.18666-34.4696,2.24382-68.70753,11.12778-102.21217A222.82821,222.82821,0,0,1,539.306,387.00831c1.70535-3.16155,2.84219-3.71261,6.13577-1.78571,40.78468,23.86113,81.77743,47.36862,122.45819,71.4042,10.17574,6.01217,19.04178,6.06854,29.22617.057,40.6915-24.01875,81.677-47.53941,122.48085-71.369,3.09912-1.80991,4.35444-1.70532,6.18753,1.651,14.2628,26.114,22.24727,54.171,26.31052,83.46115,3.15618,22.75147,4.12253,45.64046,4.18321,68.59467.01013,3.83225-1.09684,4.65152-4.71712,4.65352-33.72539.01866-66.93674,3.93781-99.19025,14.174-20.37467,6.46626-39.60163,15.2203-55.73629,29.72187A80.83879,80.83879,0,0,0,682.64916,604.34436Z" transform="translate(-427.1513 -165.57021)"/></g></svg>